<svg width="27" height="30" viewBox="0 0 27 30" fill="none" xmlns="http://www.w3.org/2000/svg">
<path d="M26.5862 27.0804L20.4654 20.5024C21.939 18.3941 22.7345 15.8279 22.7318 13.191C22.7318 6.45575 17.633 0.976074 11.3659 0.976074C5.09879 0.976074 0 6.45575 0 13.191C0 19.9263 5.09879 25.406 11.3659 25.406C13.8195 25.4089 16.2073 24.5539 18.1691 22.9703L24.2898 29.5482C24.5997 29.8459 25.0038 30.0048 25.4192 29.9923C25.8346 29.9798 26.2298 29.7969 26.5237 29.4811C26.8175 29.1652 26.9877 28.7405 26.9994 28.2941C27.011 27.8476 26.8631 27.4133 26.5862 27.0804ZM3.24741 13.191C3.24741 11.4654 3.72355 9.77851 4.61562 8.3437C5.5077 6.90888 6.77563 5.79058 8.2591 5.13021C9.74256 4.46984 11.3749 4.29705 12.9498 4.63371C14.5246 4.97036 15.9712 5.80134 17.1066 7.02154C18.242 8.24175 19.0152 9.79639 19.3284 11.4889C19.6417 13.1813 19.4809 14.9356 18.8664 16.5299C18.252 18.1242 17.2114 19.4869 15.8763 20.4456C14.5412 21.4043 12.9716 21.916 11.3659 21.916C9.21355 21.9132 7.15007 20.9931 5.62812 19.3574C4.10616 17.7218 3.24999 15.5042 3.24741 13.191Z" fill="black"/>
</svg>
