<svg width="20" height="24" viewBox="0 0 20 24" fill="none" xmlns="http://www.w3.org/2000/svg">
<path d="M4 1.2002L1 5.49899V20.5448C1 21.1148 1.21071 21.6616 1.58579 22.0646C1.96086 22.4677 2.46957 22.6942 3 22.6942H17C17.5304 22.6942 18.0391 22.4677 18.4142 22.0646C18.7893 21.6616 19 21.1148 19 20.5448V5.49899L16 1.2002H4Z" stroke="black" stroke-width="2" stroke-linecap="round" stroke-linejoin="round"/>
<path d="M1 5.49902H19" stroke="black" stroke-width="2" stroke-linecap="round" stroke-linejoin="round"/>
<path d="M14 9.79785C14 10.938 13.5786 12.0314 12.8284 12.8376C12.0783 13.6437 11.0609 14.0966 10 14.0966C8.93913 14.0966 7.92172 13.6437 7.17157 12.8376C6.42143 12.0314 6 10.938 6 9.79785" stroke="black" stroke-width="2" stroke-linecap="round" stroke-linejoin="round"/>
</svg>
